<svg width="997" height="251" viewBox="0 0 997 251" fill="none" xmlns="http://www.w3.org/2000/svg">
<path fill-rule="evenodd" clip-rule="evenodd" d="M98.5965 16.4681L123.583 31.6281L149.602 16.777L205.742 49.0121L205.151 78.973L231.058 93.6031L231.086 125.771C231.09 125.87 231.09 125.969 231.086 126.068L231.114 158.011L205.633 171.993L205.484 201.991L149.498 234.492L123.846 218.999L98.2228 234.12L70.3508 218.061C70.2629 218.014 70.1769 217.965 70.0929 217.912L42.4157 201.965L43.049 172.865L17.0401 157.677L16.8866 92.9405L43.1289 78.4718L42.8456 48.7208L70.6895 32.6127C70.7738 32.5599 70.8598 32.5101 70.9473 32.4636L98.5965 16.4681ZM72.8852 40.9349L97.1475 55.1916C99.1243 56.3531 101.668 55.6923 102.83 53.7155C103.992 51.7387 103.331 49.1945 101.354 48.0329L81.1437 36.1572L98.4958 26.1188L119.541 38.888L119.653 65.4448C119.585 65.8829 119.588 66.3252 119.659 66.7551L119.896 122.957L76.762 148.071L76.6096 127.899L102.519 113.137L102.356 80.4255C102.347 78.6115 101.176 77.075 99.5519 76.518L74.4599 62.0728C72.4729 60.9288 69.9347 61.6123 68.7907 63.5994C67.6468 65.5865 68.3303 68.1247 70.3173 69.2686L94.0656 82.9403L94.1919 108.325L72.5724 120.643L48.9379 107.004C46.952 105.858 44.4131 106.539 43.2671 108.525C42.121 110.51 42.8018 113.049 44.7877 114.195L68.3053 127.767L68.4951 152.884L46.8639 165.478L25.3318 152.904L25.2833 132.421L45.0361 143.864C47.02 145.014 49.5601 144.337 50.7094 142.353C51.8587 140.369 51.1821 137.829 49.1981 136.68L25.2605 122.812L25.2013 97.8377L47.1562 85.7328L70.4359 99.2033C72.4204 100.352 74.9601 99.6737 76.1085 97.6892C77.2568 95.7047 76.5789 93.1649 74.5944 92.0166L51.4337 78.6151L51.1944 53.4833L72.8852 40.9349ZM51.3604 172.572L50.8239 197.227L68.1934 207.235L68.3729 183.794C68.3904 181.502 70.2633 179.657 72.5561 179.675C74.8488 179.692 76.6933 181.565 76.6757 183.858L76.4602 211.998L98.1729 224.509L119.818 211.736L119.844 184.977C119.846 182.684 121.706 180.827 123.999 180.83C126.292 180.832 128.149 182.692 128.147 184.985L128.121 211.881L149.581 224.842L171.181 212.304L171.221 184.639C171.225 182.346 173.086 180.491 175.379 180.494C177.672 180.497 179.528 182.359 179.524 184.651L179.491 207.479L197.205 197.196L197.327 172.423L175.466 159.908L153.949 172.548L153.954 199.701C153.955 201.994 152.096 203.853 149.804 203.853C147.511 203.854 145.652 201.995 145.651 199.703L145.646 172.415L124.169 159.851L102.248 172.653L102.282 200.055C102.285 202.348 100.428 204.209 98.1355 204.212C95.8427 204.215 93.9816 202.358 93.9788 200.065L93.9428 171.113C93.613 169.427 94.3581 167.645 95.9245 166.73L124.172 150.233L149.911 165.29L167.165 155.155L123.811 130.335L75.2942 158.619C74.9571 158.895 74.5757 159.119 74.1621 159.279L51.3604 172.572ZM201.331 164.882L222.807 153.099L222.789 133.052L202.4 144.617C200.405 145.748 197.871 145.048 196.74 143.054C195.609 141.06 196.309 138.526 198.303 137.395L222.781 123.511L222.759 98.4521L200.875 86.0935L177.688 99.4504C175.702 100.595 173.163 99.9122 172.019 97.9254C170.874 95.9387 171.557 93.4003 173.544 92.2558L196.849 78.8302L197.344 53.7643L175.685 41.3282L151.707 55.1251C149.72 56.2686 147.182 55.5846 146.038 53.5973C144.895 51.6099 145.579 49.0719 147.566 47.9284L167.352 36.5435L149.59 26.3443L127.972 38.6833L128.063 63.756L149.872 76.1286L173.384 62.5477C175.37 61.401 177.909 62.0808 179.056 64.0663C180.202 66.0517 179.523 68.5909 177.537 69.7376L153.908 83.3859L153.766 108.268L175.813 120.851L199.527 107.12C201.511 105.972 204.051 106.649 205.2 108.633C206.349 110.617 205.672 113.157 203.688 114.306L178.632 128.814C177.337 129.942 175.421 130.188 173.846 129.289L145.435 113.074L145.605 83.2543L128.098 73.322L128.279 123.115L177.173 151.07C177.581 151.224 177.966 151.442 178.311 151.72L201.331 164.882Z" fill="#F06F71"/>
<path d="M317.113 67.2158V184.48H293.593V67.2158H317.113ZM385.207 90.0638C396.295 90.0638 405.255 93.5918 412.087 100.648C418.919 107.592 422.335 117.336 422.335 129.88V184.48H398.815V133.072C398.815 125.68 396.967 120.024 393.271 116.104C389.575 112.072 384.535 110.056 378.151 110.056C371.655 110.056 366.503 112.072 362.695 116.104C358.999 120.024 357.151 125.68 357.151 133.072V184.48H333.631V91.4078H357.151V103C360.287 98.9678 364.263 95.8318 369.079 93.5918C374.007 91.2398 379.383 90.0638 385.207 90.0638ZM474.437 89.8958C481.381 89.8958 487.485 91.2958 492.749 94.0958C498.013 96.7838 502.157 100.312 505.181 104.68V91.4078H528.869V185.152C528.869 193.776 527.133 201.448 523.661 208.168C520.189 215 514.981 220.376 508.037 224.296C501.093 228.328 492.693 230.344 482.837 230.344C469.621 230.344 458.757 227.264 450.245 221.104C441.845 214.944 437.085 206.544 435.965 195.904H459.317C460.549 200.16 463.181 203.52 467.213 205.984C471.357 208.56 476.341 209.848 482.165 209.848C488.997 209.848 494.541 207.776 498.797 203.632C503.053 199.6 505.181 193.44 505.181 185.152V170.704C502.157 175.072 497.957 178.712 492.581 181.624C487.317 184.536 481.269 185.992 474.437 185.992C466.597 185.992 459.429 183.976 452.933 179.944C446.437 175.912 441.285 170.256 437.477 162.976C433.781 155.584 431.933 147.128 431.933 137.608C431.933 128.2 433.781 119.856 437.477 112.576C441.285 105.296 446.381 99.6958 452.765 95.7758C459.261 91.8558 466.485 89.8958 474.437 89.8958ZM505.181 137.944C505.181 132.232 504.061 127.36 501.821 123.328C499.581 119.184 496.557 116.048 492.749 113.92C488.941 111.68 484.853 110.56 480.485 110.56C476.117 110.56 472.085 111.624 468.389 113.752C464.693 115.88 461.669 119.016 459.317 123.16C457.077 127.192 455.957 132.008 455.957 137.608C455.957 143.208 457.077 148.136 459.317 152.392C461.669 156.536 464.693 159.728 468.389 161.968C472.197 164.208 476.229 165.328 480.485 165.328C484.853 165.328 488.941 164.264 492.749 162.136C496.557 159.896 499.581 156.76 501.821 152.728C504.061 148.584 505.181 143.656 505.181 137.944ZM631.64 135.928C631.64 139.288 631.416 142.312 630.968 145H562.928C563.488 151.72 565.84 156.984 569.984 160.792C574.128 164.6 579.224 166.504 585.272 166.504C594.008 166.504 600.224 162.752 603.92 155.248H629.288C626.6 164.208 621.448 171.6 613.832 177.424C606.216 183.136 596.864 185.992 585.776 185.992C576.816 185.992 568.752 184.032 561.584 180.112C554.528 176.08 548.984 170.424 544.952 163.144C541.032 155.864 539.072 147.464 539.072 137.944C539.072 128.312 541.032 119.856 544.952 112.576C548.872 105.296 554.36 99.6958 561.416 95.7758C568.472 91.8558 576.592 89.8958 585.776 89.8958C594.624 89.8958 602.52 91.7998 609.464 95.6078C616.52 99.4158 621.952 104.848 625.76 111.904C629.68 118.848 631.64 126.856 631.64 135.928ZM607.28 129.208C607.168 123.16 604.984 118.344 600.728 114.76C596.472 111.064 591.264 109.216 585.104 109.216C579.28 109.216 574.352 111.008 570.32 114.592C566.4 118.064 563.992 122.936 563.096 129.208H607.28ZM693.664 90.0638C704.752 90.0638 713.712 93.5918 720.544 100.648C727.376 107.592 730.792 117.336 730.792 129.88V184.48H707.272V133.072C707.272 125.68 705.424 120.024 701.728 116.104C698.032 112.072 692.992 110.056 686.608 110.056C680.112 110.056 674.96 112.072 671.152 116.104C667.456 120.024 665.608 125.68 665.608 133.072V184.48H642.088V91.4078H665.608V103C668.744 98.9678 672.72 95.8318 677.536 93.5918C682.464 91.2398 687.84 90.0638 693.664 90.0638ZM832.958 135.928C832.958 139.288 832.734 142.312 832.286 145H764.246C764.806 151.72 767.158 156.984 771.302 160.792C775.446 164.6 780.542 166.504 786.59 166.504C795.326 166.504 801.542 162.752 805.238 155.248H830.606C827.918 164.208 822.766 171.6 815.15 177.424C807.534 183.136 798.182 185.992 787.094 185.992C778.134 185.992 770.07 184.032 762.902 180.112C755.846 176.08 750.302 170.424 746.27 163.144C742.35 155.864 740.39 147.464 740.39 137.944C740.39 128.312 742.35 119.856 746.27 112.576C750.19 105.296 755.678 99.6958 762.734 95.7758C769.79 91.8558 777.91 89.8958 787.094 89.8958C795.942 89.8958 803.838 91.7998 810.782 95.6078C817.838 99.4158 823.27 104.848 827.078 111.904C830.998 118.848 832.958 126.856 832.958 135.928ZM808.598 129.208C808.486 123.16 806.302 118.344 802.046 114.76C797.79 111.064 792.582 109.216 786.422 109.216C780.598 109.216 775.67 111.008 771.638 114.592C767.718 118.064 765.31 122.936 764.414 129.208H808.598ZM929.926 135.928C929.926 139.288 929.702 142.312 929.254 145H861.214C861.774 151.72 864.126 156.984 868.27 160.792C872.414 164.6 877.51 166.504 883.558 166.504C892.294 166.504 898.51 162.752 902.206 155.248H927.574C924.886 164.208 919.734 171.6 912.118 177.424C904.502 183.136 895.15 185.992 884.062 185.992C875.102 185.992 867.038 184.032 859.87 180.112C852.814 176.08 847.27 170.424 843.238 163.144C839.318 155.864 837.358 147.464 837.358 137.944C837.358 128.312 839.318 119.856 843.238 112.576C847.158 105.296 852.646 99.6958 859.702 95.7758C866.758 91.8558 874.878 89.8958 884.062 89.8958C892.91 89.8958 900.806 91.7998 907.75 95.6078C914.806 99.4158 920.238 104.848 924.046 111.904C927.966 118.848 929.926 126.856 929.926 135.928ZM905.566 129.208C905.454 123.16 903.27 118.344 899.014 114.76C894.758 111.064 889.55 109.216 883.39 109.216C877.566 109.216 872.638 111.008 868.606 114.592C864.686 118.064 862.278 122.936 861.382 129.208H905.566ZM963.893 105.856C966.917 100.928 970.837 97.0638 975.653 94.2638C980.581 91.4638 986.181 90.0638 992.453 90.0638V114.76H986.237C978.845 114.76 973.245 116.496 969.437 119.968C965.741 123.44 963.893 129.488 963.893 138.112V184.48H940.373V91.4078H963.893V105.856Z" fill="#3B3B3B"/>
</svg>
